<svg id="Layer_1" xmlns="http://www.w3.org/2000/svg" viewBox="0 0 200 65"><style>.st0{fill:#cabec4}.st1{fill:#f3f0ed}.st2{fill:#d5ced6}.st3{fill:#e4d9e1}.st4{fill:#b985b3}.st5{fill:#f5d03a}.st6{fill:#9f609e}.st7{fill:#288898}.st8{fill:#36abac}.st9{fill:#2d5d72}.st10{fill:#33708a}.st11{fill:#30657b}.st12{fill:#e77a54}.st13{fill:#5ea541}.st14{fill:#a9e24e}.st15{fill:#71b83f}.st16{fill:#b8d475}.st17{fill:#99c75b}.st18{fill:#dfebb4}.st19{fill:#2b90ac}.st20{fill:#80c2e0}.st21{fill:#c5db95}.st22{fill:#ee8399}.st23{fill:#ec6d89}.st24{fill:#f7bb82}.st25{fill:#f18f5c}.st26{fill:#fae485}.st27{fill:#fbcc75}.st28{fill:#f4a26a}.st29{fill:#f3abc3}.st30{fill:#ed798e}</style><g id="image_sign"><g id="Group-65" transform="translate(161 18)"><path id="Fill-44" class="st0" d="M3.9 38.1l13.3-.1L19 7.7l-17.6.1z"/><path id="Fill-45" class="st1" d="M3.3 30.8l7.5-4.1 2.3-7L7.2 8.6l-3.1-.8H1.4z"/><path id="Fill-46" class="st2" d="M18.3 19.2l-5.2.5-2.3 7 6.8 3.9z"/><path id="Fill-47" class="st3" d="M19 7.7l-11.7.1-.1.8 5.9 11.1 5.1 1.7z"/><path id="Fill-48" class="st4" d="M.9 8L5.4.9l9.5-.1 4.6 7.1z"/><path id="Fill-49" class="st5" d="M9.6 18.3h-2l-.1 2.4h2.1z"/><path id="Fill-50" class="st5" d="M7.6 24.4h2V22h-2z"/><path id="Fill-51" class="st5" d="M4 12.2l.2 2.5h1.9v-2.5z"/><path id="Fill-52" class="st6" d="M.9 8L1 9.2h18.3l.2-1.3z"/></g><path id="Fill-1" class="st7" d="M185 65h15l-5-4z"/><path id="Fill-3" class="st7" d="M0 65h60l-4-28L5.8 55.5z"/><path id="Path" class="st8" d="M60 65h86l-13.4-13.4 9.3-13.6L56 37z"/><path id="Path_1_" class="st8" d="M112 51.5l4.8-4.5 5.6.1 4.6 2.8-6.9 5.1z"/><path id="Path_2_" class="st8" d="M102 59.7l2.8-1.7h3.3l2.9 1-4 2z"/><path id="Path_3_" class="st8" d="M112 51.5l4.8-4.5 5.6.1 4.6 2.8-6.9 5.1z"/><path id="Path_4_" class="st8" d="M102 59.7l2.8-1.7h3.3l2.9 1-4 2z"/><path id="Fill-7" class="st9" d="M185 65l10-3.8-7-1.2-13 5z"/><path id="Fill-9" class="st10" d="M188 60l-35-18 17 23h5z"/><path id="Fill-11" class="st11" d="M171 67l10-6-10 6z"/><path id="Fill-14" class="st7" d="M152 65h18l-15.9-23-6.1-1-10 11z"/><path id="Fill-15" class="st7" d="M171 62.1l.1-.1-.1.1z"/><path id="Fill-16" class="st7" d="M127 49.9l-4.9-2.8-6-.1-5.1 4.5 8.6 3.5z"/><path id="Fill-17" class="st7" d="M89.5 58l8.8 2h9.6l7.1-2-5-1-11.7-1z"/><path id="Fill-20" class="st9" d="M36.5 50.5l1.1 4.2-5 2.5-3.5 2.7 3.9 3.3 5.9-1 4.1-2.5-3.5-2.4 5.4-3.2 7.2-1.3h.1l-1-3.9z"/><path id="Fill-21" class="st7" d="M61.6 41l6.8.1 4.5 2.2 8.2.9 3.9 2.6-6.2 2.2-8.5-1.2-3.2-3.7-4.9-.9L60 42z"/><path id="Fill-22" class="st7" d="M118.7 40h13.5l6.8 1.5-4 2.5-8.2-.8-7.2.4-5.6-2.3z"/><path id="Fill-23" class="st7" d="M81.8 46l8.9.2 3.3 1.4-4.1 1.4h-7.2L79 47.5z"/><g id="Group-50" transform="scale(-1 1) rotate(-3 134.127 611.813)"><path id="Fill-35" class="st3" d="M.8 47.7l14.9 1.6 7.8-38.8L3.6 8z"/><path id="Fill-36" class="st0" d="M19.7 30.1l-1.5-1.6-10.8 3.9-1.6 15.9 9.9 1z"/><path id="Fill-37" class="st2" d="M14.1 15.4l3.1 3.8 1 9.3-6.9 6.7-9-12.1 7.9-2.6z"/><path id="Fill-38" class="st1" d="M2.3 23.1l8-2.6 3.8-5.1-1.9-6.3L3.6 8z"/><path id="Fill-39" class="st4" d="M3 8.1L9.1.7 20 2.1l4.1 8.7z"/><path id="Fill-40" class="st5" d="M12.8 20.2l-.3 2.8 2.3.3.3-2.8z"/><path id="Fill-41" class="st5" d="M16.1 23.5l2.2.2.5-2.7-2.3-.3z"/><path id="Fill-42" class="st5" d="M17.6 16.5l-.4 2.7 2 .2.5-2.6z"/><path id="Fill-43" class="st6" d="M3 8.1l-.1 1.4 20.9 2.6.3-1.3z"/></g><g id="Group-49" transform="translate(24 29)"><path id="Fill-53" class="st2" d="M2.7 30h12.5L17 8 0 8.1z"/><path id="Fill-54" class="st3" d="M17 8L5 8.1l4.1 5.1 7.1 4.8.8-9z"/><path id="Fill-55" class="st0" d="M2 30h11L5.7 20l-4.2 3z"/><path id="Fill-56" class="st1" d="M1.5 23L6 21l3-8-4-5H0z"/><path id="Fill-57" class="st4" d="M0 8.2L3.2.4l10-.4L17 8z"/><path id="Fill-58" class="st12" d="M9 11l.1 2H11v-2z"/><path id="Fill-59" class="st12" d="M12 11v2h1.8l.2-2z"/><path id="Fill-60" class="st12" d="M6 20h1.9l.1-2H6z"/><path id="Fill-61" class="st12" d="M3 19l.2 2H5v-2z"/><path id="Fill-63" class="st6" d="M0 8.1V9h17V8z"/></g><path id="Fill-8" class="st9" d="M145 65h25l-2.5-4-16.4 1L138 52l10-11-6-3-10 13.5z"/><g id="Group-44" transform="rotate(-12 265.848 -794.523)"><path id="Fill-24" class="st13" d="M6.4 16.1l-2.5 6.8.7 1.1 1.1-.5 1.5-7.3z"/><path id="Fill-25" class="st13" d="M7.2 16.2l-.3-.1L4.6 24l1.1-.5z"/><path id="Fill-26" class="st13" d="M9.3 10l-2.8-.3-3 2.7-3.1 1.9 1.4 2.8 3.7 2.5 4.4.3 4-2.5-1.8-2.8-1-3.5z"/><path id="Fill-27" class="st14" d="M5.5 19.6l-3.7-2.5 3.1-3.4L7.4 10l-.2 4z"/><path id="Fill-28" class="st15" d="M9.3 10l-2.1 4-1.7 5.6 4.4.3-.6-5.1z"/><path id="Fill-29" class="st14" d="M7.8 4.7l-2.3 3L2 9.8 6 14l4.2.4 3.4-2.1L12.2 9l-.3-3.1-2-1.6z"/><path id="Fill-30" class="st13" d="M6 14L2 9.8l3.5-2.1 2.3-3 2.1-.4L7.4 10z"/><path id="Fill-31" class="st13" d="M9.9 4.3L7.4 10 6 14l4.2.4-.4-4.5z"/><path id="Fill-32" class="st13" d="M10.9.5L7.5 3.8 4.8 5.6 7 8.2l3.5.9L13.7 8 12 4.5z"/><path id="Fill-33" class="st15" d="M10.9.5L9 4.9 7 8.2l3.5.9v-4z"/><path id="Fill-34" class="st14" d="M10.9.5l1.1 4L13.7 8l-3.2 1.1v-4z"/></g><g id="Group" transform="translate(58 1)"><g id="Group-68" transform="translate(0 5)"><path id="Fill-168" class="st16" d="M15.8 33.7l-.3 2.8 1.5.5 1-1-.3-1.9-.4-2.6h-1.7z"/><path id="Fill-169" class="st17" d="M16.5 36H18l-.5-3.4h-1.9z"/><path id="Fill-170" class="st16" d="M5.5 34l-.2 2.2.7.8.6-.9.2-2.3.3-2.2-1.2-.1z"/><path id="Fill-171" class="st17" d="M6 37l1.5-.5.5-.5.4-2.9-1.7-.1z"/><path id="Fill-172" class="st18" d="M6.3 7.4l-2.2 4.7L1 24l2.6 6.3L6.9 33l8.8.6 3.5-2.2L22 25 20 9.9l-2.9-4.3-7.7-.3z"/><path id="Fill-173" class="st19" d="M11.5 11.4l.6.5 1.4.1 1.1-.4v-.5l-.6-.4-1.9-.2z"/><path id="Fill-174" class="st20" d="M11.5 11.4l3.1-.4v-.4l-2.6-.1z"/><path id="Fill-175" class="st21" d="M10.4 6l4.2-.6-3.7-.1z"/><path id="Fill-176" class="st18" d="M6.3 7.4l.8-4.1 2.1-1.2 1.9.9.4 4.2z"/><path id="Fill-177" class="st18" d="M19.3 7.5V3.4l-2-1.3-2 .8-.7 4L19 8.7z"/><path id="Fill-178" class="st16" d="M20 10l-.5-2.3-.2-3.3-.8 1.6v2.4l.8 2.7.6 13.9-5.2 5.1-10.6-.4L1 24l2.6 7.2L6.9 34l8.6.5 4-2L22 25z"/><path id="Fill-179" class="st21" d="M4.5 28.3L1 24l2.9 5.7 3.6 2.8L9 30z"/><path id="Fill-180" class="st17" d="M21.5 19.9L19.8 22v2.8L14.3 30l-1.8.1 3 4.4 4-2L22 25z"/><path id="Fill-181" class="st16" d="M6.3 8.4l.6-.3 1-2.5-.8-1.4z"/><path id="Fill-182" class="st18" d="M22.4 4.2l-.7 5.9-.9 6.2.2 1.2.6-1.2 1.3-6.1 1-5.7z"/><path id="Fill-183" class="st21" d="M23 10.7L24.1 5l-.9.1-.9 6.3-1.3 6.2.5-.5z"/><path id="Fill-184" class="st18" d="M21.8 4.6l-.7-.8-.3-.9 1.1-.7.5.8 1.7-1.9.9.9-.7.9 1.2-.5.5 1.5-2.6 1.4z"/><path id="Fill-185" class="st21" d="M23.9 3.7l-.7 1-1.2-.2.2.2 1.5.9 2.4-1.9-.1-.6-.4-.1z"/><path id="Fill-186" class="st21" d="M23.8 2.2L23 3.4l1.3-.4 1-.7L25 2z"/><path id="Fill-188" class="st18" d="M4.3 2.1l.3 6.4.7 6.8-.7.5-.5-.6-1.2-6.7-.7-6.2z"/><path id="Fill-189" class="st21" d="M2.9 9.9l1.2 6.4.5.5-1-6.2L3 4.5 2 4z"/><path id="Fill-190" class="st18" d="M4.1 3.7l.7-.8.5-.8-1.1-.8-.6.8L2.1 0l-.6.9.3.9-.8-.5L0 3l3 1.5z"/><path id="Fill-191" class="st21" d="M0 3l3 1.5 1-1.1-1.1-.1-.6-.7L.5 2z"/><path id="Fill-192" class="st21" d="M1.5.9l.2.7.9.6L2.1.3z"/><path id="Fill-193" class="st16" d="M3 10.1l1.1 6.7.6.6-.9-6L3 10z"/></g><g id="Group-73" transform="translate(57)"><path id="Fill-66" class="st22" d="M20 13.4l-.3 2.4.9.6.6-.7.2-2.6.4-2.5-1.3-.1z"/><path id="Fill-67" class="st23" d="M19.8 13.3l-.1.3 1.4.5.1-1 .3-2.5-1.3-.1z"/><path id="Fill-142" class="st24" d="M17.6 37.6v2.7l.5.7 1-.5L19 38l-.3-2.9h-1.3z"/><path id="Fill-143" class="st25" d="M17.6 37.6v1.1l1.4-.4V38l-.3-2.9h-1.3z"/><path id="Fill-144" class="st24" d="M6.4 38L6 40.4l1.2.6.9-.7.3-2.6.5-2.5-1.9-.1z"/><path id="Fill-145" class="st25" d="M7 37.8v.3l1.4.4.1-1 .3-2.4-1.3-.1z"/><path id="Fill-146" class="st26" d="M8.1 8.2l-2.5 5.3-3.1 13 2.6 7.3 3.7 3 9.7.7 4.1-2.5 2.9-7.9-2-16.1-3.3-4.8-8.6-.3z"/><path id="Fill-147" class="st19" d="M12.8 12.7l.6.6 1.7.1 1.1-.4v-.7l-.6-.4-2.1-.2z"/><path id="Fill-148" class="st20" d="M12.8 12.7l2.3-.8-1.7-.2z"/><path id="Fill-149" class="st27" d="M12.8 6.7l3.4-.7-3-.1z"/><path id="Fill-150" class="st26" d="M8.1 8.2l.7-4.6 1.9-1.3 1.7 1.1.4 4.6z"/><path id="Fill-151" class="st26" d="M21.6 8.9l.4-4.4L19.4 3l-1.7.9-.7 4.4z"/><path id="Fill-152" class="st24" d="M23.5 10.9l-1.3-1.8-.2-4.6-1 2.1.6 2.7 1.1 2.8.7 15-5.9 5.5-11.8-.4-3.2-5.7L5 34l4 3 9.5.5 4.1-2.5 3.4-8z"/><path id="Fill-153" class="st27" d="M5.6 31.5l-3.1-5L5 34l4 3 1-4.5z"/><path id="Fill-154" class="st28" d="M25.5 23l-2 1-1 3.6-5.5 4.9h-2l3.5 5 4-2.5 3.5-8z"/><path id="Fill-155" class="st24" d="M8.1 8.2l.5-.3.7-2.1-.6-1.1z"/><path id="Fill-156" class="st26" d="M23.8 3.5l-.7 7.2-1.1 7.4.5.6.5-.5 1.4-7.5 1.1-6.9z"/><path id="Fill-157" class="st27" d="M24.4 11.1l1.3-6.4-1 .1-1 7-1.2 6.2h.5z"/><path id="Fill-158" class="st26" d="M24.4 5.1l-.8-.9-.4-.9 1.2-.8.7.9 1.8-2.2L28 2l-1 1 1.4-.3.6 1.6-2.8 1.6z"/><path id="Fill-159" class="st27" d="M26.1 4.5l-.7.8-1.4-.2.2.2 1.7.6L29 4.5V4h-1z"/><path id="Fill-160" class="st27" d="M26.6 2.7L26 4l1-.3 1-1.2-.5-.5z"/><path id="Fill-162" class="st26" d="M3.9 3.5l.3 7.2.4 7.5-.4.5-.5-.6-.8-7.5-.6-6.9z"/><path id="Fill-163" class="st27" d="M2.9 11l.8 7.2.5.5-.8-6.9-.3-7-.8-.1z"/><path id="Fill-164" class="st26" d="M4.5 4.1l.8-.8.5-.9-1.2-.9-.6.8L2.3 0 1.1 1l.8 1-1.2-.6L0 3l2.7 1.7z"/><path id="Fill-165" class="st27" d="M.2 2.4l-.2.5 2.6 1.5 1.9-.5.1-.2-1.4.1-.7-.8-1.9-.7z"/><path id="Fill-166" class="st27" d="M1.2 1.4l.6 1 1 .4-.5-1.4-.8-.2z"/></g><g id="Group-71" transform="translate(32 23)"><g id="Group-70" transform="translate(.082)"><path id="Fill-116" class="st22" d="M15.7 31.7v2.2l.5.6.9-.4L17 32l-.3-2.4h-1.1z"/><path id="Fill-117" class="st23" d="M15.7 31.7v.9l1.3-.3V32l-.3-2.4h-1.1z"/><path id="Fill-118" class="st22" d="M6.7 31.7l-.3 2 .8.5.6-.6.2-2.2.3-2-1.2-.1z"/><path id="Fill-119" class="st23" d="M6.7 31.7v.2l1.2.4.1-.9.3-2-1.2-.1z"/><path id="Fill-120" class="st29" d="M7.5 7l-2.1 4.4-2.7 10.9L5 28.1l3 2.4 8.1.6 3.1-2 2.5-6.5L20 9.4l-2.7-4-7-.3z"/><path id="Fill-123" class="st30" d="M11.2 5.9l3-.6-2.7-.1z"/><path id="Fill-124" class="st29" d="M7.5 7.8L8.1 4l1.8-1 1.5.8.4 3.8z"/><path id="Fill-125" class="st29" d="M19 8l-.4-3.7L17 3.1l-1.7.7-.6 3.8z"/><path id="Fill-126" class="st23" d="M20 9.4l-1-1.5-.4-3.6-.6 1.5.5 2.2.9 2.3.5 12.3-4.7 4.5-9.7-.3-2.8-4.5L5 28.1l3 2.4 8.1.6 3.1-2 2.5-6.5z"/><path id="Fill-127" class="st30" d="M5.5 26.8l-2.8-4.5L5 28.1l3 2.4 1.4-3.6z"/><path id="Fill-128" class="st22" d="M21 18.5l-1.2 1.8.1 2.3-4.7 4.5h-1.6l2.5 4 3.1-2 2.5-6.5z"/><path id="Fill-129" class="st23" d="M7.6 7.3L8 7l.7-1.9L8.1 4z"/><path id="Fill-130" class="st29" d="M21.3 4.1l-.6 5.7-.9 5.9.4.5.5-.5 1.2-5.9.9-5.4z"/><path id="Fill-131" class="st30" d="M21.9 9.8l.8-5.2H22l-.7 5.9-1.1 5.7.5-.5z"/><path id="Fill-132" class="st29" d="M21.3 4.6l-.7-.7-.3-.8 1-.6.6.7 1.5-1.7.9.8-.6.8 1-.4.5 1.3-2.4 1.2z"/><path id="Fill-133" class="st30" d="M23 3.9l-.7.7-1.2-.2.2.2 1.5.5L25.2 4l-.2-.5h-.3z"/><path id="Fill-134" class="st30" d="M23.3 2.2l-.5 1.2.9-.3.6-.8-.2-.2z"/><path id="Fill-135" class="st23" d="M21.2 11l-1 5.2.5-.5 1.2-5.9z"/><path id="Fill-136" class="st29" d="M4.7 3.5L5 9.2l.4 6-.4.4-.4-.5-.8-5.9-.5-5.5z"/><path id="Fill-137" class="st30" d="M3.8 9.2l.8 5.9.4.5-.7-5.7L4 4l-.7-.1z"/><path id="Fill-138" class="st29" d="M4.8 4l.7-.7.4-.7-1-.7-.6.7L2.9.7l-1 .8.6.8-1-.4-.6 1.2 2.3 1.4z"/><path id="Fill-139" class="st30" d="M1.1 2.7l-.2.4 2.3 1.4L4.8 4l.1-.2-1.2.1-.6-.7-1.6-.6z"/><path id="Fill-140" class="st30" d="M1.9 1.5l.6.8.8.4-.4-1.2-.7-.2z"/><path id="Fill-141" class="st23" d="M3.8 9.2l.8 5.9.4.5-.6-5.2-.6-1.3z"/></g><path id="Fill-121" class="st19" d="M11.7 11.5l.5.5 1.4.1.9-.4v-.5l-.4-.4-1.9-.1z"/><path id="Fill-122" class="st20" d="M11.7 11.5l1.9-.7-1.4-.1z"/></g></g></g></svg>
